<mxfile host="app.diagrams.net" agent="Mozilla/5.0 (X11; Linux x86_64) AppleWebKit/537.36 (KHTML, like Gecko) Chrome/131.0.0.0 Safari/537.36" version="26.0.16">
  <diagram name="ページ1" id="vMTIGnG20oSdwsP59e7k">
    <mxGraphModel dx="599" dy="346" grid="0" gridSize="10" guides="1" tooltips="1" connect="1" arrows="1" fold="1" page="1" pageScale="1" pageWidth="827" pageHeight="1169" math="0" shadow="0">
      <root>
        <mxCell id="0" />
        <mxCell id="1" parent="0" />
        <mxCell id="znJADq_VpP3DEJ-DVC2s-3" value="" style="verticalLabelPosition=bottom;shadow=0;dashed=0;align=center;html=1;verticalAlign=top;shape=mxgraph.electrical.radio.aerial_-_antenna_2;rotation=340;" vertex="1" parent="1">
          <mxGeometry x="472" y="195" width="30" height="50" as="geometry" />
        </mxCell>
        <mxCell id="znJADq_VpP3DEJ-DVC2s-4" value="" style="verticalLabelPosition=bottom;shadow=0;dashed=0;align=center;html=1;verticalAlign=top;shape=mxgraph.electrical.radio.aerial_-_antenna_2;rotation=20;" vertex="1" parent="1">
          <mxGeometry x="711" y="191" width="30" height="50" as="geometry" />
        </mxCell>
        <mxCell id="znJADq_VpP3DEJ-DVC2s-16" value="&lt;font style=&quot;font-size: 18px;&quot;&gt;地球&lt;/font&gt;" style="text;html=1;align=center;verticalAlign=middle;whiteSpace=wrap;rounded=0;" vertex="1" parent="1">
          <mxGeometry x="575" y="225" width="60" height="30" as="geometry" />
        </mxCell>
        <mxCell id="znJADq_VpP3DEJ-DVC2s-17" value="" style="verticalLabelPosition=bottom;verticalAlign=top;html=1;shape=mxgraph.basic.arc;startAngle=0.8904249195362134;endAngle=0.1086739094259913;dashed=1;dashPattern=12 12;" vertex="1" parent="1">
          <mxGeometry x="380" y="40" width="460" height="350" as="geometry" />
        </mxCell>
        <mxCell id="znJADq_VpP3DEJ-DVC2s-19" value="" style="verticalLabelPosition=bottom;verticalAlign=top;html=1;shape=mxgraph.basic.arc;startAngle=0.8904249195362134;endAngle=0.1086739094259913;dashed=1;dashPattern=12 12;" vertex="1" parent="1">
          <mxGeometry x="380" y="100" width="460" height="350" as="geometry" />
        </mxCell>
        <mxCell id="znJADq_VpP3DEJ-DVC2s-21" value="" style="verticalLabelPosition=bottom;verticalAlign=top;html=1;shape=mxgraph.basic.arc;startAngle=0.9129178309298805;endAngle=0.0822345854055692;dashed=1;dashPattern=12 12;" vertex="1" parent="1">
          <mxGeometry x="380" y="200" width="460" height="350" as="geometry" />
        </mxCell>
        <mxCell id="znJADq_VpP3DEJ-DVC2s-22" value="" style="endArrow=classic;html=1;rounded=0;entryX=0.518;entryY=0.717;entryDx=0;entryDy=0;entryPerimeter=0;exitX=0.715;exitY=0.05;exitDx=0;exitDy=0;exitPerimeter=0;" edge="1" parent="1">
          <mxGeometry width="50" height="50" relative="1" as="geometry">
            <mxPoint x="710" y="217.5" as="sourcePoint" />
            <mxPoint x="723.8965154601409" y="223.19035581292297" as="targetPoint" />
          </mxGeometry>
        </mxCell>
        <mxCell id="znJADq_VpP3DEJ-DVC2s-23" value="" style="endArrow=classic;html=1;rounded=0;entryX=0.523;entryY=0.629;entryDx=0;entryDy=0;entryPerimeter=0;exitX=0.266;exitY=0.058;exitDx=0;exitDy=0;exitPerimeter=0;" edge="1" parent="1" source="znJADq_VpP3DEJ-DVC2s-21" target="znJADq_VpP3DEJ-DVC2s-3">
          <mxGeometry width="50" height="50" relative="1" as="geometry">
            <mxPoint x="490" y="212.15" as="sourcePoint" />
            <mxPoint x="503.8965154601409" y="217.84035581292298" as="targetPoint" />
          </mxGeometry>
        </mxCell>
        <mxCell id="znJADq_VpP3DEJ-DVC2s-26" value="" style="verticalLabelPosition=bottom;verticalAlign=top;html=1;shape=mxgraph.basic.cone2;dx=0.5;dy=0.83;rotation=-69.7;fillColor=#dae8fc;strokeColor=#6c8ebf;" vertex="1" parent="1">
          <mxGeometry x="593" y="19" width="30" height="100" as="geometry" />
        </mxCell>
        <mxCell id="znJADq_VpP3DEJ-DVC2s-24" value="" style="ellipse;whiteSpace=wrap;html=1;aspect=fixed;fillColor=#fff2cc;strokeColor=#d6b656;" vertex="1" parent="1">
          <mxGeometry x="630" y="70" width="20" height="20" as="geometry" />
        </mxCell>
        <mxCell id="znJADq_VpP3DEJ-DVC2s-27" value="&lt;font style=&quot;font-size: 18px;&quot;&gt;80km&lt;/font&gt;" style="text;html=1;align=center;verticalAlign=middle;whiteSpace=wrap;rounded=0;" vertex="1" parent="1">
          <mxGeometry x="750" y="119" width="60" height="30" as="geometry" />
        </mxCell>
        <mxCell id="znJADq_VpP3DEJ-DVC2s-28" value="&lt;div style=&quot;text-align: left;&quot;&gt;&lt;span style=&quot;font-size: 18px;&quot;&gt;高度&lt;/span&gt;&lt;/div&gt;&lt;font style=&quot;font-size: 18px;&quot;&gt;120km&lt;/font&gt;" style="text;html=1;align=center;verticalAlign=middle;whiteSpace=wrap;rounded=0;" vertex="1" parent="1">
          <mxGeometry x="755" y="50" width="60" height="30" as="geometry" />
        </mxCell>
        <mxCell id="znJADq_VpP3DEJ-DVC2s-29" value="&lt;span style=&quot;font-size: 18px;&quot;&gt;最大2000km&lt;/span&gt;" style="text;html=1;align=center;verticalAlign=middle;whiteSpace=wrap;rounded=0;" vertex="1" parent="1">
          <mxGeometry x="547.5" y="172.5" width="115" height="30" as="geometry" />
        </mxCell>
        <mxCell id="znJADq_VpP3DEJ-DVC2s-32" value="" style="endArrow=classic;html=1;rounded=0;exitX=0.5;exitY=0;exitDx=0;exitDy=0;exitPerimeter=0;entryX=0.122;entryY=0.505;entryDx=0;entryDy=0;entryPerimeter=0;" edge="1" parent="1" source="znJADq_VpP3DEJ-DVC2s-3" target="znJADq_VpP3DEJ-DVC2s-26">
          <mxGeometry width="50" height="50" relative="1" as="geometry">
            <mxPoint x="570" y="160" as="sourcePoint" />
            <mxPoint x="620" y="110" as="targetPoint" />
          </mxGeometry>
        </mxCell>
        <mxCell id="znJADq_VpP3DEJ-DVC2s-33" value="" style="endArrow=classic;html=1;rounded=0;exitX=0.086;exitY=0.529;exitDx=0;exitDy=0;exitPerimeter=0;entryX=0.5;entryY=0;entryDx=0;entryDy=0;entryPerimeter=0;" edge="1" parent="1" source="znJADq_VpP3DEJ-DVC2s-26" target="znJADq_VpP3DEJ-DVC2s-4">
          <mxGeometry width="50" height="50" relative="1" as="geometry">
            <mxPoint x="488" y="207" as="sourcePoint" />
            <mxPoint x="615" y="90" as="targetPoint" />
          </mxGeometry>
        </mxCell>
        <mxCell id="znJADq_VpP3DEJ-DVC2s-34" value="" style="triangle;whiteSpace=wrap;html=1;fillColor=#000000;rotation=-45;" vertex="1" parent="1">
          <mxGeometry x="538" y="128" width="15" height="15" as="geometry" />
        </mxCell>
        <mxCell id="znJADq_VpP3DEJ-DVC2s-35" value="" style="triangle;whiteSpace=wrap;html=1;fillColor=#000000;rotation=-45;direction=south;" vertex="1" parent="1">
          <mxGeometry x="662" y="129" width="15" height="15" as="geometry" />
        </mxCell>
        <mxCell id="znJADq_VpP3DEJ-DVC2s-36" value="" style="verticalLabelPosition=bottom;verticalAlign=top;html=1;shape=mxgraph.basic.partConcEllipse;startAngle=0.7658627587152768;endAngle=0.30520048838678865;arcWidth=0.87;fillColor=#d5e8d4;strokeColor=#82b366;" vertex="1" parent="1">
          <mxGeometry x="380" y="220" width="460" height="350" as="geometry" />
        </mxCell>
        <mxCell id="znJADq_VpP3DEJ-DVC2s-37" value="&lt;font style=&quot;font-size: 18px;&quot;&gt;80km&lt;/font&gt;" style="text;html=1;align=center;verticalAlign=middle;whiteSpace=wrap;rounded=0;" vertex="1" parent="1">
          <mxGeometry x="750" y="119" width="60" height="30" as="geometry" />
        </mxCell>
        <mxCell id="znJADq_VpP3DEJ-DVC2s-38" value="&lt;span style=&quot;font-size: 18px;&quot;&gt;地球&lt;/span&gt;" style="text;html=1;align=center;verticalAlign=middle;whiteSpace=wrap;rounded=0;" vertex="1" parent="1">
          <mxGeometry x="580" y="220" width="60" height="30" as="geometry" />
        </mxCell>
      </root>
    </mxGraphModel>
  </diagram>
</mxfile>
